<?xml version="1.0" encoding="UTF-8"?>
<svg id="Capa_2" data-name="Capa 2" xmlns="http://www.w3.org/2000/svg" viewBox="0 0 52.58 54.77">
  <defs>
    <style>
      .cls-1 {
        fill: #fff;
      }

      .cls-2 {
        fill: #2c2359;
      }
    </style>
  </defs>
  <g id="Capa_1-2" data-name="Capa 1">
    <g>
      <path class="cls-2" d="m10.76,0h41.82v54.77H10.76C4.82,54.77,0,49.95,0,44.02V10.76C0,4.82,4.82,0,10.76,0Z" transform="translate(52.58 54.77) rotate(-180)"/>
      <path class="cls-1" d="m40.79,17.13c-.45.14-.9.43-1.23.79-4.06,4.44-8.1,8.9-12.14,13.35l-1.06,1.17s-.04.04-.06.06c-.01-.01-.02-.03-.04-.04-4.37-4.82-8.75-9.63-13.12-14.45l-.08-.09c-.12-.13-.23-.26-.36-.37-.63-.56-1.54-.63-2.25-.19-.74.46-1.13,1.38-.94,2.18.12.49.37.97.7,1.34,3.82,4.23,7.65,8.44,11.48,12.66l2.95,3.25c.56.62,1.1.92,1.66.92h0c.56,0,1.09-.29,1.67-.93l14.42-15.87c.12-.13.24-.26.34-.4.48-.68.54-1.6.15-2.35-.43-.82-1.31-1.25-2.08-1.02Z"/>
    </g>
  </g>
</svg>